<?xml version="1.0" encoding="UTF-8"?>
<svg width="16px" height="16px" viewBox="0 0 16 16" version="1.1" xmlns="http://www.w3.org/2000/svg" xmlns:xlink="http://www.w3.org/1999/xlink">
    <!-- Generator: Sketch 57.1 (83088) - https://sketch.com -->
    <title>icon_close copy</title>
    <desc>Created with Sketch.</desc>
    <g id="Symbols" stroke="none" stroke-width="1" fill="none" fill-rule="evenodd">
        <g id="Modal/InvitePatient/1" transform="translate(-559.000000, -25.000000)" fill="#1F4566">
            <g id="icon_close/blue" transform="translate(559.000000, 25.000000)">
                <g id="Group">
                    <path d="M0.260349528,1.51742825 L14.4825718,15.7396505 C14.8297045,16.0867832 15.3925178,16.0867832 15.7396505,15.7396505 C16.0867832,15.3925178 16.0867832,14.8297045 15.7396505,14.4825718 L1.51742825,0.260349528 C1.17029555,-0.0867831759 0.607482232,-0.0867831759 0.260349528,0.260349528 C-0.0867831759,0.607482232 -0.0867831759,1.17029555 0.260349528,1.51742825 Z" id="Path-5" fill-rule="nonzero"></path>
                    <path d="M0.260349528,1.51742825 L14.4825718,15.7396505 C14.8297045,16.0867832 15.3925178,16.0867832 15.7396505,15.7396505 C16.0867832,15.3925178 16.0867832,14.8297045 15.7396505,14.4825718 L1.51742825,0.260349528 C1.17029555,-0.0867831759 0.607482232,-0.0867831759 0.260349528,0.260349528 C-0.0867831759,0.607482232 -0.0867831759,1.17029555 0.260349528,1.51742825 Z" id="Path-5" fill-rule="nonzero" transform="translate(8.000000, 8.000000) scale(-1, 1) translate(-8.000000, -8.000000) "></path>
                </g>
            </g>
        </g>
    </g>
</svg>