<svg xmlns="http://www.w3.org/2000/svg" viewBox="0 0 24 24"><path d="M11.979 24c-4.348 0-7.132-1.34-8.511-4.095-.884-1.768-.168-2.732.463-3.582.05-.067.099-.134.147-.201-2.871-3.701-2.781-8.948.238-12.55C6.032 1.525 8.442.269 11.103.035c.296-.026.596-.039.891-.039 2.335 0 4.611.83 6.409 2.338 4.096 3.434 4.739 9.58 1.477 13.788.048.067.097.133.147.2.631.851 1.346 1.814.462 3.583C19.111 22.66 16.328 24 11.979 24zM6.188 10.002c-.047 0-.237.028-.686.388-1.021.818-.844 1.18-.416 2.056.283.58.604 1.238.604 2.142 0 1.043-.53 1.757-.956 2.33-.59.795-.98 1.321-.371 2.539C5.555 21.841 8.047 23 11.979 23c3.933 0 6.424-1.159 7.616-3.543.61-1.219.219-1.744-.371-2.539-.426-.574-.955-1.288-.955-2.33 0-.905.321-1.562.604-2.142.427-.875.604-1.238-.417-2.056-.449-.36-.639-.388-.686-.388-.092.015-.259.287-.369.467-.374.61-.937 1.531-2.422 1.531-1.094 0-1.582-.524-1.974-.944-.323-.347-.518-.556-1.026-.556-.509 0-.704.209-1.026.556-.392.42-.879.944-1.974.944-1.485 0-2.048-.92-2.421-1.529-.111-.182-.278-.454-.358-.468l-.012-.001zM11.995.995c-.266 0-.537.012-.804.035-2.395.211-4.564 1.342-6.109 3.184-2.652 3.163-2.826 7.602-.476 10.942.056-.186.083-.372.083-.569 0-.674-.244-1.174-.503-1.704-.448-.917-.955-1.957.69-3.274.525-.421.928-.608 1.307-.608.064 0 .127.006.189.016.524.092.785.518 1.038.93.346.565.645 1.053 1.569 1.053.659 0 .903-.262 1.242-.626.363-.39.814-.874 1.758-.874.944 0 1.395.484 1.758.874.339.363.583.626 1.242.626.924 0 1.223-.487 1.568-1.052.252-.412.513-.839 1.039-.93.061-.011.124-.016.188-.016.38 0 .783.188 1.308.608 1.645 1.318 1.138 2.357.69 3.274-.259.53-.502 1.03-.502 1.704 0 .196.027.382.083.567 2.677-3.812 2.019-9.03-1.591-12.056C16.12 1.723 14.126.995 11.995.995z"/><circle cx="9.229" cy="6.75" r=".75"/><circle cx="14.729" cy="6.75" r=".75"/><path d="M9.979 15.5c-.054 0-.107-.009-.158-.026-.126-.042-.229-.131-.289-.25s-.069-.255-.027-.382l.5-1.5c.068-.205.258-.342.474-.342.054 0 .107.009.159.026.126.042.229.131.289.25s.069.255.027.382l-.5 1.5c-.069.204-.259.342-.475.342zM13.979 15.5c-.216 0-.406-.137-.474-.342l-.5-1.5c-.042-.127-.033-.263.027-.382s.162-.208.289-.25c.052-.018.105-.026.159-.026.215 0 .406.137.474.342l.5 1.5c.042.127.033.263-.027.382s-.162.208-.289.25c-.052.017-.105.026-.159.026z"/></svg>
